<mxfile host="app.diagrams.net" modified="2024-06-16T17:20:14.664Z" agent="Mozilla/5.0 (Macintosh; Intel Mac OS X 10_15_7) AppleWebKit/537.36 (KHTML, like Gecko) Chrome/125.0.0.0 Safari/537.36" etag="SIv9HIzr4tF2TQ_TOooI" version="24.5.4" type="google">
  <diagram name="Page-1" id="BADQjrVFU8VtQnhv5c_M">
    <mxGraphModel grid="0" page="0" gridSize="10" guides="1" tooltips="1" connect="1" arrows="1" fold="1" pageScale="1" pageWidth="2336" pageHeight="1654" math="0" shadow="0">
      <root>
        <mxCell id="0" />
        <mxCell id="1" parent="0" />
        <mxCell id="I8ZRsmWN1uhxYX_VTkR--1" value="Klijentska razina" style="verticalAlign=top;align=left;spacingTop=8;spacingLeft=2;spacingRight=12;shape=cube;size=10;direction=south;fontStyle=4;html=1;whiteSpace=wrap;" vertex="1" parent="1">
          <mxGeometry x="100" y="140" width="180" height="120" as="geometry" />
        </mxCell>
        <mxCell id="I8ZRsmWN1uhxYX_VTkR--2" value="Desktop&lt;div&gt;Mobitel&lt;/div&gt;&lt;div&gt;Tablet&lt;/div&gt;" style="shape=module;align=left;spacingLeft=20;align=center;verticalAlign=top;whiteSpace=wrap;html=1;" vertex="1" parent="1">
          <mxGeometry x="140" y="180" width="100" height="50" as="geometry" />
        </mxCell>
        <mxCell id="I8ZRsmWN1uhxYX_VTkR--3" value="Web razina" style="verticalAlign=top;align=left;spacingTop=8;spacingLeft=2;spacingRight=12;shape=cube;size=10;direction=south;fontStyle=4;html=1;whiteSpace=wrap;" vertex="1" parent="1">
          <mxGeometry x="350" y="145" width="180" height="120" as="geometry" />
        </mxCell>
        <mxCell id="I8ZRsmWN1uhxYX_VTkR--4" value="Korisničko sučelje" style="shape=module;align=left;spacingLeft=20;align=center;verticalAlign=top;whiteSpace=wrap;html=1;" vertex="1" parent="1">
          <mxGeometry x="390" y="180" width="100" height="50" as="geometry" />
        </mxCell>
        <mxCell id="I8ZRsmWN1uhxYX_VTkR--5" value="Aplikacijska razina" style="verticalAlign=top;align=left;spacingTop=8;spacingLeft=2;spacingRight=12;shape=cube;size=10;direction=south;fontStyle=4;html=1;whiteSpace=wrap;" vertex="1" parent="1">
          <mxGeometry x="630" y="145" width="180" height="245" as="geometry" />
        </mxCell>
        <mxCell id="I8ZRsmWN1uhxYX_VTkR--6" value="Poslovna logika" style="shape=module;align=left;spacingLeft=20;align=center;verticalAlign=top;whiteSpace=wrap;html=1;" vertex="1" parent="1">
          <mxGeometry x="670" y="200" width="100" height="50" as="geometry" />
        </mxCell>
        <mxCell id="I8ZRsmWN1uhxYX_VTkR--7" value="Pristup podacima" style="shape=module;align=left;spacingLeft=20;align=center;verticalAlign=top;whiteSpace=wrap;html=1;" vertex="1" parent="1">
          <mxGeometry x="670" y="300" width="100" height="50" as="geometry" />
        </mxCell>
        <mxCell id="I8ZRsmWN1uhxYX_VTkR--8" value="Podatkovna razina" style="verticalAlign=top;align=left;spacingTop=8;spacingLeft=2;spacingRight=12;shape=cube;size=10;direction=south;fontStyle=4;html=1;whiteSpace=wrap;" vertex="1" parent="1">
          <mxGeometry x="630" y="430" width="180" height="120" as="geometry" />
        </mxCell>
        <mxCell id="I8ZRsmWN1uhxYX_VTkR--9" value="SQL baza podataka" style="shape=module;align=left;spacingLeft=20;align=center;verticalAlign=top;whiteSpace=wrap;html=1;" vertex="1" parent="1">
          <mxGeometry x="670" y="480" width="100" height="50" as="geometry" />
        </mxCell>
        <mxCell id="I8ZRsmWN1uhxYX_VTkR--10" value="" style="endArrow=none;html=1;rounded=0;exitX=0;exitY=0;exitDx=55;exitDy=0;exitPerimeter=0;entryX=0.418;entryY=0.996;entryDx=0;entryDy=0;entryPerimeter=0;" edge="1" parent="1" source="I8ZRsmWN1uhxYX_VTkR--1" target="I8ZRsmWN1uhxYX_VTkR--3">
          <mxGeometry width="50" height="50" relative="1" as="geometry">
            <mxPoint x="390" y="330" as="sourcePoint" />
            <mxPoint x="440" y="280" as="targetPoint" />
          </mxGeometry>
        </mxCell>
        <mxCell id="I8ZRsmWN1uhxYX_VTkR--11" value="" style="endArrow=none;html=1;rounded=0;exitX=0;exitY=0;exitDx=55;exitDy=0;exitPerimeter=0;entryX=0.224;entryY=1.006;entryDx=0;entryDy=0;entryPerimeter=0;" edge="1" parent="1" source="I8ZRsmWN1uhxYX_VTkR--3" target="I8ZRsmWN1uhxYX_VTkR--5">
          <mxGeometry width="50" height="50" relative="1" as="geometry">
            <mxPoint x="570" y="370" as="sourcePoint" />
            <mxPoint x="620" y="320" as="targetPoint" />
          </mxGeometry>
        </mxCell>
        <mxCell id="I8ZRsmWN1uhxYX_VTkR--12" value="" style="endArrow=none;html=1;rounded=0;entryX=0.5;entryY=1;entryDx=0;entryDy=0;exitX=0.5;exitY=0;exitDx=0;exitDy=0;" edge="1" parent="1" source="I8ZRsmWN1uhxYX_VTkR--7" target="I8ZRsmWN1uhxYX_VTkR--6">
          <mxGeometry width="50" height="50" relative="1" as="geometry">
            <mxPoint x="620" y="370" as="sourcePoint" />
            <mxPoint x="670" y="320" as="targetPoint" />
          </mxGeometry>
        </mxCell>
        <mxCell id="I8ZRsmWN1uhxYX_VTkR--13" value="" style="endArrow=none;html=1;rounded=0;entryX=0;entryY=0;entryDx=245;entryDy=95;entryPerimeter=0;exitX=-0.002;exitY=0.528;exitDx=0;exitDy=0;exitPerimeter=0;" edge="1" parent="1" source="I8ZRsmWN1uhxYX_VTkR--8" target="I8ZRsmWN1uhxYX_VTkR--5">
          <mxGeometry width="50" height="50" relative="1" as="geometry">
            <mxPoint x="620" y="370" as="sourcePoint" />
            <mxPoint x="670" y="320" as="targetPoint" />
          </mxGeometry>
        </mxCell>
      </root>
    </mxGraphModel>
  </diagram>
</mxfile>
